<svg xmlns="http://www.w3.org/2000/svg" width="800" height="600" viewBox="0 0 800 600" role="img" aria-label="AI Image Describer caption preview">
  <defs>
    <linearGradient id="bg-cap" x1="0" y1="0" x2="1" y2="1">
      <stop offset="0%" stop-color="#f8fafc" />
      <stop offset="100%" stop-color="#f1f5f9" />
    </linearGradient>
    <linearGradient id="photo-cap" x1="0" y1="0" x2="1" y2="1">
      <stop offset="0%" stop-color="#fde68a" />
      <stop offset="100%" stop-color="#fca5a5" />
    </linearGradient>
  </defs>
  <rect width="800" height="600" fill="url(#bg-cap)" />
  <rect x="40" y="40" width="720" height="520" rx="26" fill="#ffffff" stroke="#e2e8f0" stroke-width="2" />

  <text x="80" y="110" font-family="Arial, sans-serif" font-size="40" fill="#0f172a">Captions + Alt Text</text>
  <text x="80" y="138" font-family="Arial, sans-serif" font-size="24" fill="#64748b">Short, shareable, and accessible.</text>

  <rect x="80" y="170" width="320" height="300" rx="20" fill="#f8fafc" stroke="#e2e8f0" />
  <rect x="100" y="190" width="280" height="200" rx="18" fill="url(#photo-cap)" />
  <circle cx="140" cy="230" r="16" fill="#fdba74" />
  <path d="M110 360l70-70 50 50 40-40 80 60v20H110z" fill="#fb7185" />

  <rect x="440" y="190" width="280" height="94" rx="16" fill="#e0f2fe" />
  <text x="460" y="220" font-family="Arial, sans-serif" font-size="24" fill="#0369a1">Caption</text>
  <rect x="460" y="234" width="230" height="12" rx="6" fill="#bae6fd" />
  <rect x="460" y="254" width="200" height="12" rx="6" fill="#bae6fd" />

  <rect x="440" y="310" width="280" height="110" rx="16" fill="#dcfce7" />
  <text x="460" y="340" font-family="Arial, sans-serif" font-size="24" fill="#166534">Alt text</text>
  <rect x="460" y="354" width="230" height="12" rx="6" fill="#bbf7d0" />
  <rect x="460" y="374" width="210" height="12" rx="6" fill="#bbf7d0" />
  <rect x="460" y="394" width="190" height="12" rx="6" fill="#bbf7d0" />

  <rect x="440" y="440" width="180" height="34" rx="17" fill="#f1f5f9" />
  <text x="460" y="462" font-family="Arial, sans-serif" font-size="24" fill="#64748b">Ready to paste</text>
</svg>
