<svg xmlns="http://www.w3.org/2000/svg" width="800" height="600" viewBox="0 0 800 600" role="img" aria-label="AI Image Describer description preview">
  <defs>
    <linearGradient id="bg-desc" x1="0" y1="0" x2="1" y2="1">
      <stop offset="0%" stop-color="#f8fafc" />
      <stop offset="100%" stop-color="#eef2f7" />
    </linearGradient>
    <linearGradient id="photo-fill" x1="0" y1="0" x2="1" y2="1">
      <stop offset="0%" stop-color="#e0f2fe" />
      <stop offset="100%" stop-color="#bae6fd" />
    </linearGradient>
  </defs>
  <rect width="800" height="600" fill="url(#bg-desc)" />
  <rect x="40" y="40" width="720" height="520" rx="26" fill="#ffffff" stroke="#e2e8f0" stroke-width="2" />

  <rect x="80" y="100" width="280" height="210" rx="18" fill="url(#photo-fill)" stroke="#bae6fd" />
  <circle cx="150" cy="160" r="26" fill="#7dd3fc" />
  <path d="M100 280l70-70 50 50 40-40 90 60v20H100z" fill="#38bdf8" />

  <rect x="390" y="110" width="150" height="28" rx="14" fill="#dcfce7" />
  <path d="M405 124l10 10 20-22" fill="none" stroke="#16a34a" stroke-width="4" stroke-linecap="round" stroke-linejoin="round" />
  <text x="440" y="130" font-family="Arial, sans-serif" font-size="14" fill="#166534">Accurate</text>

  <rect x="390" y="170" width="320" height="18" rx="9" fill="#e2e8f0" />
  <rect x="390" y="200" width="280" height="18" rx="9" fill="#e2e8f0" />
  <rect x="390" y="230" width="300" height="18" rx="9" fill="#e2e8f0" />
  <rect x="390" y="260" width="240" height="18" rx="9" fill="#e2e8f0" />

  <text x="80" y="380" font-family="Arial, sans-serif" font-size="40" fill="#0f172a">Image description</text>
  <text x="80" y="410" font-family="Arial, sans-serif" font-size="24" fill="#64748b">Readable, detailed output for photos, products, and screenshots.</text>
</svg>
