<svg xmlns="http://www.w3.org/2000/svg" width="800" height="600" viewBox="0 0 800 600" role="img" aria-label="AI Image Describer OCR preview">
  <defs>
    <linearGradient id="bg-ocr" x1="0" y1="0" x2="1" y2="1">
      <stop offset="0%" stop-color="#f8fafc" />
      <stop offset="100%" stop-color="#eef2f7" />
    </linearGradient>
    <linearGradient id="doc-fill" x1="0" y1="0" x2="1" y2="1">
      <stop offset="0%" stop-color="#e0e7ff" />
      <stop offset="100%" stop-color="#c7d2fe" />
    </linearGradient>
  </defs>
  <rect width="800" height="600" fill="url(#bg-ocr)" />
  <rect x="40" y="40" width="720" height="520" rx="26" fill="#ffffff" stroke="#e2e8f0" stroke-width="2" />

  <text x="150" y="110" font-family="Arial, sans-serif" font-size="40" fill="#0f172a">OCR</text>
  <text x="140" y="138" font-family="Arial, sans-serif" font-size="24" fill="#64748b">Extract text</text>
  <text x="420" y="110" font-family="Arial, sans-serif" font-size="40" fill="#0f172a">Image to Prompt</text>

  <rect x="80" y="170" width="250" height="300" rx="18" fill="#f8fafc" stroke="#e2e8f0" />
  <rect x="105" y="195" width="200" height="240" rx="16" fill="url(#doc-fill)" />
  <rect x="125" y="215" width="160" height="14" rx="7" fill="#6366f1" opacity="0.7" />
  <rect x="125" y="242" width="130" height="14" rx="7" fill="#6366f1" opacity="0.55" />
  <rect x="125" y="269" width="150" height="14" rx="7" fill="#6366f1" opacity="0.55" />
  <rect x="125" y="296" width="120" height="14" rx="7" fill="#6366f1" opacity="0.55" />

  <path d="M110 200h30M110 200v30" stroke="#4f46e5" stroke-width="3" stroke-linecap="round" />
  <path d="M300 200h-30M300 200v30" stroke="#4f46e5" stroke-width="3" stroke-linecap="round" />
  <path d="M110 430h30M110 430v-30" stroke="#4f46e5" stroke-width="3" stroke-linecap="round" />
  <path d="M300 430h-30M300 430v-30" stroke="#4f46e5" stroke-width="3" stroke-linecap="round" />


  <rect x="430" y="180" width="290" height="170" rx="18" fill="#f8fafc" stroke="#e2e8f0" />
  <rect x="470" y="215" width="210" height="110" rx="14" fill="#e2e8f0" />
  <circle cx="520" cy="250" r="12" fill="#cbd5f5" />
  <path d="M480 315l50-45 30 28 35-38 65 55v10H480z" fill="#cbd5f5" />
  <path d="M575 336v24m-12-10 12 12 12-12" fill="none" stroke="#94a3b8" stroke-width="3" stroke-linecap="round" stroke-linejoin="round" />
  <rect x="430" y="370" width="290" height="100" rx="18" fill="#fee2e2" />
  <text x="450" y="432" font-family="Arial, sans-serif" font-size="40" fill="#b91c1c">Prompt...</text>
</svg>
